# xmcd
#
# Track frame offsets:
#	150
#	15768
#	30507
#
# Disc length: 638 seconds
#
# Revision: 0
# Processed by: cddbd v1.5.2PL0 Copyright (c) Steve Scherf et al.
# Submitted via: dBpowerAMP V4.0
#
DISCID=0f027c03
DTITLE=Diana Fox - Mein Herz ist angekommen
DYEAR=2006
DGENRE=Dance
TTITLE0=Mein Herz ist angekommen
TTITLE1=Entdeckung der Gelassenheit
TTITLE2=03 Du bist mir wichtig
EXTD=
EXTT0=
EXTT1=
EXTT2=
PLAYORDER=
